<?xml version="1.0" encoding="UTF-8" standalone="no"?>
<!-- Generator: Adobe Illustrator 18.0.0, SVG Export Plug-In . SVG Version: 6.00 Build 0)  -->
<!DOCTYPE svg  PUBLIC '-//W3C//DTD SVG 1.1//EN'  'http://www.w3.org/Graphics/SVG/1.1/DTD/svg11.dtd'>
<svg xmlns="http://www.w3.org/2000/svg" xml:space="preserve" version="1.1" y="0px" x="0px" xmlns:xlink="http://www.w3.org/1999/xlink" viewBox="0 0 280 72" enable-background="new 0 0 280 72">
<g id="Blue">
	<g fill="#1F346B">
		<path d="m97.3 14.9c-0.3-0.9-0.9-1.6-2-1.6-1.4 0-2.2 1.3-2.2 3.8s0.7 3.8 2.3 3.8c0.9 0 1.5-0.3 2.1-1.6l1.9 0.5c-0.6 1.9-2.1 2.8-4 2.8-2.8 0-4.3-2-4.3-5.6 0-3.5 1.6-5.6 4.3-5.6 2.1 0 3.3 0.9 3.8 2.8l-1.9 0.7z"/>
		<path d="m105.3 22.6l-0.1-0.7c-0.7 0.5-1.5 0.8-2.4 0.8-1.4 0-2.1-1-2.1-2.1 0-1.8 1.4-2.7 4.5-3.1v-0.7c0-0.6-0.5-0.9-1.1-0.9-0.9 0-1.3 0.5-1.7 1l-1.2-0.9c0.5-0.8 1.8-1.5 2.9-1.4 2.1 0 3 0.8 3 3.1v3.7c0 0.4 0 0.8 0.2 1.1h-2zm-0.2-3.8c-1.2 0.2-2.6 0.5-2.6 1.6 0 0.6 0.4 0.9 0.9 0.9 0.6 0 1.3-0.5 1.7-0.8v-1.7z"/>
		<rect y="11.8" x="109.2" height="10.8" width="1.9"/>
		<path d="m113.4 11.6h1.9v1.7h-1.9v-1.7zm1.9 11h-1.9v-7.8h1.9v7.8z"/>
		<path d="m119.8 16.3v6.3h-1.9v-6.3h-1.1v-1.5h1.1v-1c0-1.7 0.7-2.2 2.2-2.2h1.2v1.5h-0.5c-0.8 0-1 0.2-1 0.8v0.8h1.6v1.5h-1.6z"/>
		<path d="m125.8 14.6c2.1 0 3.4 1.6 3.4 4s-1.3 4-3.4 4c-2.1 0-3.4-1.6-3.4-4s1.3-4 3.4-4m0 1.5c-1 0-1.5 0.8-1.5 2.5s0.5 2.5 1.5 2.5 1.5-0.8 1.5-2.5-0.5-2.5-1.5-2.5"/>
		<path d="m130.8 22.6v-7.8h1.7v1.3c0.4-0.9 1.1-1.5 2.2-1.5v2h-0.3c-0.9 0-1.7 1.1-1.7 1.3v4.7h-1.9z"/>
		<path d="m136.2 22.6v-7.8h1.7v0.8c0.7-0.5 1.5-1 2.4-1 1.6 0 2.3 1 2.3 2.6v5.3h-1.9v-5.1c0-1-0.3-1.4-1-1.4-0.8 0-1.4 0.5-1.7 0.8v5.6h-1.8z"/>
		<path d="m144.9 11.6h1.9v1.7h-1.9v-1.7zm1.9 11h-1.9v-7.8h1.9v7.8z"/>
		<path d="m153.1 22.6l-0.1-0.7c-0.7 0.5-1.5 0.8-2.4 0.8-1.4 0-2.1-1-2.1-2.1 0-1.8 1.4-2.7 4.5-3.1v-0.7c0-0.6-0.5-0.9-1.1-0.9-0.9 0-1.3 0.5-1.7 1l-1.2-0.9c0.5-0.8 1.8-1.5 2.9-1.4 2.1 0 3 0.8 3 3.1v3.7c0 0.4 0 0.8 0.2 1.1h-2zm-0.2-3.8c-1.2 0.2-2.6 0.5-2.6 1.6 0 0.6 0.4 0.9 0.9 0.9 0.6 0 1.3-0.5 1.7-0.8v-1.7z"/>
		<path d="m167.6 14.6c-0.3-0.8-1-1.4-1.9-1.4s-1.5 0.4-1.5 1.2c0 1.9 5.6 1.5 5.6 5 0 2.2-1.4 3.3-3.8 3.3-1.8 0-3.4-1-4-2.6l1.7-0.7c0.5 1 1.1 1.7 2.4 1.7 1 0 1.8-0.4 1.8-1.4 0-2.1-5.6-1.7-5.6-5 0-1.9 1.6-3 3.5-3 1.7 0 3.2 0.9 3.8 2.4l-2 0.5z"/>
		<path d="m171.8 14.8v-2.6h1.9v2.6h1.5v1.5h-1.5v4.4c0 0.4 0.2 0.5 0.7 0.5 0.3 0 0.6-0.1 0.9-0.2v1.5c-0.5 0.1-1 0.1-1.5 0.1-1.4 0-1.9-0.7-1.9-1.8v-4.6h-1.1v-1.5h1z"/>
		<path d="m181.1 22.6l-0.1-0.7c-0.7 0.5-1.5 0.8-2.4 0.8-1.4 0-2.1-1-2.1-2.1 0-1.8 1.4-2.7 4.5-3.1v-0.7c0-0.6-0.5-0.9-1.1-0.9-0.9 0-1.3 0.5-1.7 1l-1.2-0.9c0.5-0.8 1.8-1.5 2.9-1.4 2.1 0 3 0.8 3 3.1v3.7c0 0.4 0 0.8 0.2 1.1h-2zm-0.2-3.8c-1.2 0.2-2.6 0.5-2.6 1.6 0 0.6 0.4 0.9 0.9 0.9 0.6 0 1.3-0.5 1.7-0.8v-1.7z"/>
		<path d="m185.2 14.8v-2.6h1.9v2.6h1.5v1.5h-1.5v4.4c0 0.4 0.2 0.5 0.7 0.5 0.3 0 0.6-0.1 0.9-0.2v1.5c-0.5 0.1-1 0.1-1.5 0.1-1.4 0-1.9-0.7-1.9-1.8v-4.6h-1.1v-1.5h1z"/>
		<path d="m191.5 19c0 1.6 0.7 2.2 1.6 2.2s1.3-0.4 1.7-0.9l1.3 0.8c-0.7 1.1-1.8 1.6-3.3 1.6-2 0-3.3-1.6-3.3-4 0-2.5 1.3-4 3.4-4 2 0 3.2 1.7 3.2 3.6v0.7h-4.6zm3-1.3c0-1.1-0.6-1.7-1.5-1.7s-1.5 0.6-1.5 1.7h3z"/>
		<path d="m209.9 11.8h2.1v6.8c0 3.2-1.9 4.2-4.1 4.2s-4.2-1-4.2-4.2v-6.8h2.1v6.9c0 1.8 0.7 2.4 2.1 2.4s2.1-0.6 2.1-2.4v-6.9z"/>
		<path d="m214.4 22.6v-7.8h1.7v0.8c0.7-0.5 1.5-1 2.4-1 1.6 0 2.3 1 2.3 2.6v5.3h-1.9v-5.1c0-1-0.3-1.4-1-1.4-0.8 0-1.4 0.5-1.7 0.8v5.6h-1.8z"/>
		<path d="m223.1 11.6h1.9v1.7h-1.9v-1.7zm1.8 11h-1.9v-7.8h1.9v7.8z"/>
		<polygon points="226.5 14.8 228.3 14.8 229.6 20.1 229.6 20.1 231 14.8 232.8 14.8 230.6 22.6 228.6 22.6"/>
		<path d="m235.4 19c0 1.6 0.7 2.2 1.6 2.2s1.3-0.4 1.7-0.9l1.3 0.8c-0.7 1.1-1.8 1.6-3.3 1.6-2 0-3.3-1.6-3.3-4 0-2.5 1.3-4 3.4-4 2 0 3.2 1.7 3.2 3.6v0.7h-4.6zm3-1.3c0-1.1-0.6-1.7-1.5-1.7s-1.5 0.6-1.5 1.7h3z"/>
		<path d="m241.9 22.6v-7.8h1.7v1.3c0.5-0.9 1.1-1.5 2.2-1.5v2h-0.3c-0.9 0-1.7 1.1-1.7 1.3v4.7h-1.9z"/>
		<path d="m251.3 16.8c-0.4-0.4-0.9-0.8-1.5-0.8-0.7 0-1 0.3-1 0.8 0 1.3 3.9 0.8 3.9 3.6 0 1.6-1.2 2.3-2.9 2.3-1.2 0-2.3-0.6-3-1.6l1.2-0.9c0.4 0.6 1 1.1 1.8 1.1 0.7 0 1.1-0.4 1.1-0.9 0-1.3-3.9-0.9-3.9-3.6 0-1.5 1.2-2.3 2.6-2.3 1 0 2.1 0.4 2.7 1.2l-1 1.1z"/>
		<path d="m254.5 11.6h1.9v1.7h-1.9v-1.7zm1.9 11h-1.9v-7.8h1.9v7.8z"/>
		<path d="m259 14.8v-2.6h1.9v2.6h1.5v1.5h-1.5v4.4c0 0.4 0.2 0.5 0.7 0.5 0.3 0 0.6-0.1 0.9-0.2v1.5c-0.5 0.1-1 0.1-1.5 0.1-1.4 0-1.9-0.7-1.9-1.8v-4.6h-1.1v-1.5h1z"/>
		<path d="m263.5 23.8c0.3 0.1 0.5 0.1 0.8 0.1 0.6 0 1-0.2 1.2-0.6s0.3-0.6 0.3-0.9-0.2-0.6-0.2-0.9l-2.1-6.7h1.9l1.3 4.8 1.3-4.8h1.9l-2.5 7.8c-0.8 2.2-1.5 2.8-3 2.8-0.5 0-0.7 0-0.9-0.1v-1.5z"/>
		<polygon points="91.6 47.6 91.6 30.4 96.2 30.4 99.5 42.4 99.5 42.4 102.8 30.4 107.5 30.4 107.5 47.6 104.6 47.6 104.6 34.1 104.6 34.1 100.7 47.6 98.3 47.6 94.5 34.1 94.4 34.1 94.4 47.6"/>
		<path d="m118.1 47.8c-4.7 0-7.2-3.2-7.2-8.8s2.5-8.8 7.2-8.8 7.2 3.2 7.2 8.8-2.6 8.8-7.2 8.8m0-14.9c-2.7 0-3.9 2-3.9 6.1 0 4 1.2 6.1 3.9 6.1s3.9-2 3.9-6.1c0-4-1.2-6.1-3.9-6.1"/>
		<polygon points="128.7 47.6 128.7 30.4 132.1 30.4 138.8 42.1 138.9 42.1 138.9 30.4 141.9 30.4 141.9 47.6 138.8 47.6 131.8 35.4 131.7 35.4 131.7 47.6"/>
		<polygon points="157.1 30.4 157.1 33.2 152.6 33.2 152.6 47.6 149.4 47.6 149.4 33.2 144.9 33.2 144.9 30.4"/>
		<polygon points="160.1 47.6 160.1 30.4 171.4 30.4 171.4 33.2 163.4 33.2 163.4 37.3 169.2 37.3 169.2 40 163.4 40 163.4 44.8 171.7 44.8 171.7 47.6"/>
		<path d="m174.8 47.6v-17.2h6.8c3.9 0 5.5 2.3 5.5 5.1 0 2.1-1 3.8-3.1 4.4l3.8 7.6h-3.6l-3.2-7h-2.8v7h-3.4zm3.3-9.7h2.4c2.6 0 3.3-0.8 3.3-2.4s-1-2.4-2.8-2.4h-3v4.8z"/>
		<polygon points="191 47.6 191 30.4 202.4 30.4 202.4 33.2 194.3 33.2 194.3 37.3 200.2 37.3 200.2 40 194.3 40 194.3 44.8 202.6 44.8 202.6 47.6"/>
		<polygon points="211.2 37.2 214.1 30.4 217.5 30.4 212.8 40.7 212.8 47.6 209.5 47.6 209.5 40.7 204.8 30.4 208.2 30.4"/>
		<path d="m229 30.4h6.4c3.4 0 5.6 1.1 5.8 4.2 0 1.8-0.7 3.2-2.6 3.9 2.2 0.9 3 1.9 3 4.5 0 2.7-1.9 4.5-6.2 4.5h-6.4v-17.1zm3.3 6.9h3.3c1.6 0 2.3-0.9 2.3-2.1s-0.8-2.1-2.3-2.1h-3.3v4.2zm0 7.6h3.3c1.9 0 2.7-0.9 2.7-2.5s-0.8-2.5-2.7-2.5h-3.3v5z"/>
		<path d="m248.6 30.4h4.1l4.9 17.2h-3.3l-0.9-3.7h-5.4l-1 3.7h-3.3l4.9-17.2zm0.1 10.8h4l-1.9-7.5-2.1 7.5z"/>
		<polygon points="263.7 37.2 266.6 30.4 270 30.4 265.3 40.7 265.3 47.6 262.1 47.6 262.1 40.7 257.3 30.4 260.7 30.4"/>
		<path d="m44.4 28.6c-8.3 0-15 6.7-15 15s6.7 15 15 15 15-6.7 15-15c-0.1-8.3-6.8-15-15-15m0 27.1c-6.7 0-12.1-5.4-12.1-12.1s5.4-12.1 12.1-12.1 12.1 5.4 12.1 12.1c0.1 6.6-5.4 12.1-12.1 12.1"/>
		<path d="m10.4 41.6s0.7 0.8 2.7 0.4c1-0.2 1.5 0 1.7 0.1s0.2 0.2 0.2 0.3c0 0.2-0.2 0.5-0.4 0.6 0 0 1 0.3 1.9 0.1s2-0.2 2.1-0.2 0.4 0 0.3 0.3-0.4 0.6-0.4 0.6 0.8-0.1 2.2-0.4c0.6-0.1 1.5-0.2 2.4 0s0.9 1.4 2.1 1.8 1.2-2.6 1.2-3.4 0.3-1.2 0.9-1.7c1-0.8 0.8-2 0.6-2.8-0.1-0.8 1.5-1.7 2-2.6 0.4-1 0.1-2-0.1-2.4s0.1-0.7 0.4-1c0.5-0.5 1.4-2 1-2.5s-2.4 0-4.5 2c-2.1 1.9-3.6 4.2-4.2 5.2-0.1 0.1-0.2-0.1 0-0.5 0.1-0.4 1.3-3.3 3.7-5.6s4.6-3.2 6.3-2.7c1.7 0.4 1.4 1.8 1.1 2.6s-1.2 1.3-1.4 2.3c-0.2 0.9 0.1 1.6 0.2 2.5s-0.2 1.5-1 2.4c-0.4 0.4-1.1 1.2-1.1 1.6 0 0.1 0.3 0.6-0.2 2s-1.7 1.8-1.7 2.2 0 2.3-1.2 3.4-2.6 0.7-3.2 0-0.9-1.6-2.1-1.6c-1.2 0.1-2 0-3.3 0.3-1.2 0.3-2.4 0.3-2.9 0.2s-0.6-0.3-0.6-0.3 0.6-0.1 1.2-0.3c0.5-0.2 0.6-0.4 0.6-0.4s-1.2 0.2-2.5 0.1c-1.4-0.1-2.7-0.6-3.5-0.6 0 0 0.3-0.4 1-0.5s0.8-0.4 0.8-0.4c-1.4 0.3-2.9-0.6-2.9-0.7-0.2-1.9 0.9-5.3 0.9-5.3s-0.1 0-0.4 0.3c-0.4 0.3-0.8 0.4-0.8 0.4 0.2-0.5 0.4-1.1 0.6-2 0.4-2.1 2.1-5.8 2.1-5.8s-0.3 0-0.7 0.3c-0.4 0.3-0.8 0.3-0.8 0.3s0.1-0.3 0.4-1c0.3-0.7 0.8-1.5 1.5-2.3s1.1-1.5 1.1-1.5-0.2-0.1-0.7 0c-0.5 0.1-0.9 0.3-0.9 0.3s0.3-0.6 1.3-1.8c1-1.2 2.5-2.3 2.5-2.3s-0.3 0.2-0.7 0.1c-0.3 0-0.7 0.1-0.7 0.1s0.3-0.3 1.6-1.2c1.3-0.9 2.7-1.5 2.7-1.5s-0.3 0-0.7 0c-0.4 0-0.8 0.1-0.8 0.1s1-0.8 3.4-1.6c3-1 4.2-0.7 4.2-0.7s-1 0.1-2 0.6c-1 0.4-1.3 0.7-1.3 0.7s0.4 0.3 0.5 0.4c0 0.1 0.1 0.2-0.1 0.2-0.2 0.1-1 0.2-2 0.6s-1.4 0.8-1.4 0.8 0.3 0.1 0.4 0.2c0.2 0.1 0.2 0.2 0 0.4-0.1 0.1-0.5 0.4-1.7 1.3-1.1 0.9-1.5 1.5-1.5 1.5s0.6 0 0.7 0c0.1 0 0.2 0.1 0.1 0.2-0.1 0.2-1 1.1-1.6 1.9-0.6 0.9-1.1 1.6-1.1 1.6s1.1-0.3 0.9 0.4c-0.1 0.4-0.5 1.3-1.6 3.5s-1.7 3.6-1.7 3.6 1-0.1 1.1-0.1c0.1 0 0.2 0.1 0.2 0.3-0.1 0.1-0.9 1.4-1.7 3.9-0.6 1.6-0.7 2.7-0.7 2.7"/>
		<path d="m73.1 47.1s-0.5-0.1-0.8-0.1-0.3 0.5-0.3 0.8c0.1 1.8-0.1 4-0.1 4.2s-0.8-0.3-1-0.4-0.3 0.1-0.3 0.3c-0.3 2.8-1.6 5.9-1.6 5.9s-0.2-0.4-0.3-0.6c-0.1-0.2-0.2-0.2-0.3-0.1-0.6 0.6-1.1 1.8-1.4 3s-1.1 2.1-1.1 2.1c-0.1-0.1-0.2-0.8-0.2-1-0.1-0.2-0.3-0.1-0.4 0s-0.4 1-1.3 2.8-1.5 3.3-2.7 3.4c-0.9 0.1-1.3-2.4-1.3-2.4s-0.3 0.2-0.5 0.6c-0.2 0.4-0.2 0.9-0.2 0.9-0.9-2.6-0.5-4.6-0.5-4.8s-0.1-0.3-0.3-0.3c-0.1 0.1-0.5 0.4-0.5 0.4-0.1-0.4-0.3-0.9-0.6-1.5-0.3-0.5-1.1-0.3-1.7-0.2-0.5 0-0.7-0.5-0.3-1.6s1.9-1.7 2.5-2.1c0.6-0.3 0.1-0.9 0.3-1.6 0.4-1.2 2.1-1.7 2.3-2.1 0.2-0.3-0.2-1 0.1-1.9s2-2 2-2c-0.2-1.6 0-3.3 0.7-4.3s2-0.1 2.4 2.5c0.5 3.7-1 6.2-1.7 7.7s-1 1.6-0.9 1.7 0.5 0 1.1-0.8c0.6-0.9 3.3-4.5 2.8-8.6-0.6-4.1-2.7-5.1-4.4-4.2s-2 2.5-1.6 5.5c0 0-1 0.8-1.3 1.4-0.4 0.7-0.2 1.9-0.4 2.1s-1 0.6-1.6 1.4-0.5 1.9-0.9 2.1-1.8 0.8-2.3 2.6c-0.6 1.8 0 3.2 0.9 3 0.8-0.2 2.1-0.3 2.1 1-0.1 1.3-0.2 2.7 0 3.8 0 0 0.3-1 0.6-1.5 0 0 0.9 4.5 2.6 6.2 0 0 0-0.6-0.2-1.3-0.1-0.7 0.1-1.1 0.1-1.1s0.2 0.7 1.1 0.7c1.6-0.1 3.4-3.8 3.4-3.8-0.1 0.9 0.2 1.2 0.2 1.2 1.5-1.7 2.5-4.2 2.9-5.5s0.9-1.9 0.9-1.9 0.2 0.1 0.2 0.6c0 0.5 0.2 1 0.2 1 1.9-4.3 2.4-7.5 2.4-7.5s0.2 0.1 0.4 0.6c0.1 0.5 0.5 0.9 0.5 0.9 1.1-3.7 0.9-6 0.9-6s0.2 0.1 0.6 0.3c0.4 0.3 0.7 0.8 0.7 0.8 0.1-1.8-0.2-3-0.6-4.3-0.3-1.3-0.7-2.7-0.7-2.7 0.6 0 1.1 0.5 1.1 0.5-1.1-4.3-2.2-6-2.2-6s0.2 0 0.5 0.1c0.3 0 0.7 0.2 0.7 0.2-1.1-2.6-2.7-4.1-2.7-4.1 0.3-0.2 1 0 1 0-1.9-3.3-5.8-4.5-5.8-4.5s2.3 1.3 3.4 2.9c0.1 0.2-0.2 0.3-0.4 0.3-0.3 0-0.3 0.2-0.2 0.4s1.7 1.8 2.2 3c0.1 0.2-0.8 0-0.6 0.5s1.7 2.8 2.1 4.6c0 0-1.3-0.3-1.1 0.1-0.8 0.7 0.3 2.8 1.4 6.7"/>
		<path d="m48.4 2s-1.3-0.1-3.1 0.2c-1.8 0.2-2.4 0.5-3.1 0.5-0.7 0.1-0.9 0.1-0.9 0.1s0.4 0.5 0.9 0.5c0.5 0 0.9 0 1.1 0.2 0 0-0.8 0.1-2.3 0.7-1.9 0.7-2 0.8-4 1.4 0 0 0.5 0.3 1 0.3 0.4 0 0.7 0.2 0.7 0.2s-1.4 0.3-3 0.9c-1.6 0.6-1.9 1-2.7 1 0 0 0.4 0.2 1 0.3 0.4 0 0.8 0.1 0.8 0.1s-0.6 0.3-2.1 1.1c-1.4 0.8-1.9 1-2.8 1.2 0 0 0.6 0.4 1.1 0.4h0.5s-0.9 0.6-2.3 1.3-1.6 0.8-2.1 1.3c0 0 0.7 0.1 1 0.2 0.1 0.1 0.3 0.1 0.4 0.1 0 0-0.9 0.5-2.2 1.3-1.3 0.9-1.7 1.5-1.7 1.5s2.8-1.7 5.2-2.4c0.2-0.1 0.3-0.3 0.1-0.5-0.1-0.1-0.7-0.5-0.7-0.5s0.2-0.1 1.7-0.9c1.6-0.8 2.4-1.1 2.6-1.2s0-0.3-0.1-0.4-0.7-0.4-0.7-0.4 0.3-0.2 1-0.5c1.3-0.6 3.2-1.2 3.3-1.3 0.2-0.1 0.2-0.2 0-0.3-0.1-0.1-0.6-0.5-0.6-0.5s0.5-0.3 1.5-0.5c1-0.3 1.9-0.6 2.3-0.7 0.6-0.3 0.8-0.4 0.7-0.7-0.1-0.2-0.3-0.5-0.3-0.5s0.5-0.2 1.2-0.5c1-0.3 1.6-0.4 2.5-0.6s1-0.3 1-0.5c0-0.3-0.2-0.6-0.2-0.6s0.1-0.1 1.1-0.2c1.1-0.1 2-0.1 2.7-0.1s1.1 0.1 1.4 0 0.4-0.7 0.4-0.7 0.8-0.1 2 0.2c1.2 0.3 1.7 0.5 2 0.6s0.5 0 0.5-0.3c0.1-0.3 0.2-0.5 0.2-0.5s0.8 0 2.1 0.5c1.3 0.6 2 1.1 2.3 1.3 0.2 0.1 0.3 0 0.5-0.2l0.3-0.3s0.1 0 0.5 0.1c0.4 0.1 1 0.4 1.5 0.8 0.6 0.4 0.7 0.7 1.2 0.9 0.2 0 0.4-0.4 0.5-0.7s0.3-0.5 0.3-0.5 0.2 0 0.7 0.3c0.5 0.3 1.1 0.7 1.5 1.1h0.1s0-0.5-0.3-0.9c-0.5-0.7-1.5-1.5-2.4-2.1s-1.2-0.8-1.4-1c-0.1-0.1-0.1-0.2-0.1-0.2s-0.1 0.3 0.2 0.8c0.3 0.6 0.2 0.9 0.2 0.9s-1-0.6-2.2-1.1c-1.1-0.5-1.5-0.7-2-1-0.6-0.3-0.7-0.4-0.7-0.4s0 0.6 0.3 1c0.3 0.3 0.3 0.4 0.3 0.4s-1.5-0.7-3.5-1.2c-2-0.4-3.1-0.8-3.1-0.8s0.2 0.7 0.5 1c0.3 0.3 0.4 0.5 0.4 0.5s-1.6-0.4-3.3-0.5c-1.6-0.1-2.3 0-2.6 0h-0.3s0.1 0.3 0.7 0.6c0.6 0.2 0.8 0.4 0.8 0.4"/>
		<path d="m74.8 8.1c0.6 1 0.4 2.7-0.2 3.5-0.5 0.8-1.4 1.3-1.9 1.9s-1 1.6-1.2 2.3-0.6 1.4-1.2 1.4-1.2-0.5-1.5-1.3-0.4-1.8-1.7-2.5-3.7-1.5-3.7-3.1 1.5-2.1 2.5-3.3 2.3-2.1 3.7-2.1c1.6 0.2 4.1 1.4 5.2 3.2"/>
		<path d="m79.8 20.1c-0.2-0.4-0.3-0.7-0.3-0.7s0.1-0.2 0.4-0.4c0.5-0.2 0.9-0.2 0.9-0.6 0.1-1.7-1.2-2.9-1.2-2.9 0.2-0.1 0.5 0 0.9 0 0.4 0.1 0.4-0.1 0.4-0.1-0.6-1.8-2.5-3-2.5-3 0.3-0.2 0.7 0 1 0.1s0.6 0 0.6 0c-0.3-1.1-1.1-1.9-2.2-2.5s-1.9-0.6-2-0.6 0 0.1 0 0.2c0.1 0.1 0.6 0.3 1 0.7 0.5 0.5 0.6 0.7 0.6 0.7s0.1 0.3-0.4 0.6c-0.5 0.4-1 0.7-1 0.8-0.1 0.1 0 0.2 0.1 0.3s0.7 0.4 1.5 1c0.7 0.6 1 1 0.8 1.1s-0.7 0.2-0.6 0.5 0.6 0.5 0.9 0.8 0.7 0.6 0.3 1.6c-0.2 0.6-0.6 0.8-0.9 0.8s-0.5 0-0.5 0.1c0.1 0.1 0.6 1.1 0.3 1.6-0.2 0.5-0.5 0.8-1.1 0.7-0.3 0-0.4 0-0.3 0.1s0.6 0.8 0.4 1.8c-0.1 0.6-0.6 0.7-1 0.5-0.2-0.6-0.5-1.1-0.7-1.7-0.1-0.2-0.3-0.3-0.5-0.2s-0.3 0.3-0.2 0.5c0.1 0.1 0.1 0.3 0.2 0.4 0.2 0.4 0.3 0.7 0.5 1.1 0 0.4 0 0.9-0.1 1.3-0.1 0.6-0.6 0.8-0.9 0.1s-0.6-1.6-0.6-1.8c0-0.1-0.5 0.1-0.5 0.3s-0.2 1.4-0.7 1.5c-0.2 0.1-0.4-0.4-0.4-0.9 0-0.6 0.3-1.6-0.4-2.1-0.2-0.1-0.3-0.2-0.5-0.1-0.2 0-0.3 0.2-0.3 0.2-0.1 1.6-0.5 2.5-0.5 2.5s0.7-0.7 0.7-0.3c0 0.4 0.1 1.6 0.5 2.1s0.8 0.7 1.2 0.7c0.1 0-0.1-0.4 0.5-1 0.1-0.2 0.3-0.3 0.3-0.1s0.3 1 1.2 1c0.7 0 1.1-0.5 1.3-1.1 1.7 5.1 1.5 10-0.3 13.3 2.2-3.3 2.5-8.6 0.7-14.1 0.5-0.2 1.4 0 1.8-0.8v-0.1c2.3 4.7 2.8 9.4 1.5 12.9 1.7-3.6 1.3-8.9-1.3-14 0-0.4-0.2-0.6-0.2-0.6s0.6-0.4 1.3-0.4c0.2 0 0.3-0.1 0.4-0.2 3 4.4 4.2 9.2 3.4 12.9 1.2-4.2-0.1-9.7-3.5-14.5"/>
		<path d="m57.9 7.6c0.3 0.1 0.4 0.3 0.2 0.7s-0.5 0.6-1 0.6c-1 0.1-1.8-0.6-3.7-0.5-1.1 0-2.3 0.2-3.3 0.7s-1.2 0.7-1.3 0.7c0 0 0-0.2 0.1-0.3 0.4-0.4 2.2-1.7 5-2.2 2.2-0.3 3.5 0 4 0.3"/>
		<path d="m56.3 9.3c0.1 0 0.1 0 0.2 0.1 0 0.1 0.1 0.5 0 1-0.2 0.5-0.4 0.9-0.9 1.4-0.6 0.4-1.6 0.3-2-0.5-0.6-0.9-0.3-2.3 0.6-2.5 0.4-0.1 0.5 0.2 0.5 0.4 0.1 0.4-0.2 0.6 0 0.9s0.6 0.4 1 0 0.4-0.5 0.5-0.6c0-0.1 0-0.2 0.1-0.2"/>
		<path d="m69.8 19.7c-0.1-0.2-0.3-0.2-0.3 0.1 0 0.5-0.1 0.8-0.5 1.3-0.3 0.5-0.5 0.1-0.7 0.3-0.7 0.5-0.4 1.7-0.4 2.3s-0.2 1.2-0.4 1.1c-0.4-0.2-0.7-1-0.7-1.2-0.1-0.5-0.5-0.5-0.5-0.3-0.2 0.7-0.8 2.2-1.1 2.9-0.2 0.4-0.5 0-0.6-0.4 0.3-0.9 0.7-1.7 1.1-2.6 0.1-0.2 0.1-0.3 0.2-0.5s0-0.4-0.2-0.5-0.4 0-0.5 0.2c-0.7 1.4-1.2 2.8-1.6 4.1-0.3 0.6-0.7 1.1-1.1 1.6-0.3 0.3-0.7-1.4-1.4-0.5-0.2 0.3-0.9 1.2-1.2 1.6 0 0.1-0.1 0.1-0.1 0.1 0.6-1.6 1.4-3.2 2.4-4.8 0.1-0.1 0.2-0.3 0.3-0.4 0.1-0.2 0.1-0.4-0.1-0.5s-0.4-0.1-0.5 0.1c-0.9 1.4-1.7 2.9-2.3 4.3-0.2-0.7-0.9 0-1.2 0.4s-0.7 1-0.8 0.7c0 0-0.1-0.2-0.1-0.4 0-0.3-0.3-0.4-0.6-0.4 0.5-0.9 1.2-1.9 1.9-2.8l0.3-0.3c0.1-0.1 0.1-0.4-0.1-0.5-0.1-0.1-0.4-0.1-0.5 0.1-0.9 1.2-1.7 2.4-2.3 3.6-0.3 0.1-0.5 0.1-0.7 0.2-0.6 0.2-1.3 0.4-1.3 0.4 0-0.3 0-0.6-0.3-0.8-0.3-0.3-1.5 0-2-0.1s-0.5-0.2-0.5-0.4c0.2-0.7-0.4-1-1.1-1.1-0.7-0.2-1-0.3-1-0.3 0.2-0.7-0.8-1.1-1.4-1.4s-1.3-0.7-1.3-0.7l-0.1-0.5c-0.1-0.7-0.9-0.9-1.4-1.4-0.5-0.4-0.7-1.2-0.7-1.2s0 0.1 0.2 0.8c0.2 0.7 0.8 1.1 1 1.6s-0.1 0.9-0.1 0.9c0.5 0.4 1 0.7 1.8 1.1 0.8 0.5 0.2 0.9 0.2 0.9 0.5 0.4 1.3 0.8 2.1 1 0.8 0.3 0.1 0.9 0.1 0.9 0.9 0.4 2 0.8 2.6 0.8s0.2 0.9 0.2 0.9c0.6 0.2 1.1 0.1 2.5-0.3 0.2 0 0.3-0.1 0.4-0.1-1.6 3.8-1.9 7.5-0.8 10.3-0.9-2.8-0.3-6.6 1.4-10.2 0.4 0.1 0.3 0.5 0.3 0.7-0.1 0.3 0 0.7 0.2 0.6 1.2-0.5 2-1.6 2.3-1.6 0.1 0 0.1 0.1 0.2 0.2-1.3 4.2-1.3 8.2 0.2 11-1-2.6-1-6.1 0-9.7 0.8-0.4 1-1 1.5-1.4s0.7-0.2 0.7 0.1c0.1 0.4-0.2 1.1 0.2 0.9 0.5-0.2 0.9-0.5 1.2-0.8-0.7 4.5-0.1 8.6 1.8 11.4-1.8-3.2-2.1-7.9-0.8-12.9 0.1-0.2 0.1-0.3 0.2-0.4 0.1-0.3 0.3 0.1 0.3 0.5s0.1 0.7 0.3 0.5c1.3-0.6 2.1-2.7 2.2-3.1 0-0.2 0.1-0.1 0.3 0.1 0.6 0.5 0.4 1 0.6 1 0.4 0 0.7-0.3 1.1-0.8 0.3-0.6 0.3-1.9 0.3-2.3s0.7 0.3 0.7 0.3 0.5-0.9 0.5-2.5c-0.1-1.1-0.3-1.6-0.5-1.8"/>
		<path d="m58.9 29.7c0-0.1-0.1-0.2-0.2-0.2 0 0-0.1 0-0.1 0.1 0.1 0.1 0.2 0.2 0.2 0.3 0.1-0.1 0.1-0.1 0.1-0.2"/>
		<path d="m51.3 27.7c-0.1 0.3 0 0.4 0.5 0.4h1.3l-1.8-0.9c0 0.2 0.1 0.4 0 0.5"/>
		<path d="m54.4 29c-0.1-0.1-0.3-0.2-0.4-0.3 0 0.1 0.1 0.3 0 0.4 0.1 0 0.2-0.1 0.4-0.1"/>
		<path d="m58.2 32.5c0.2-0.9 0.4-1.7 0.6-2.6-0.1-0.1-0.2-0.2-0.2-0.3-0.3 0.2-0.9 0.8-1.8 1.3 0.5 0.5 1 1.1 1.4 1.6"/>
		<path d="m59.6 30.7c-0.2 0.1-0.3 0.3-0.5 0.4-0.2 0.7-0.3 1.3-0.4 2 2.1 2.8 3.4 6.3 3.4 10.1 0.1-0.1 0.2-0.1 0.3-0.2 0.6-0.3 1.3-0.4 1.9-0.2 0-0.8-0.1-1.5-0.2-2.3-0.8-1.5-1.4-3.3-1.5-5.3-0.9-1.6-1.8-3.1-3-4.5"/>
		<path d="m47.6 26.2c0-0.2 0-0.4-0.4-0.6-0.8-0.5-1.4-0.8-1.8-1.1 0 0 0.2-0.3 0.2-0.7-0.4 0-0.7-0.1-1.1-0.1-4.3 0-8.2 1.4-11.4 3.6 1.1 0.4 1 1.4 0.8 2.2 3-2.2 6.6-3.6 10.6-3.6 1 0 2.1 0.1 3.1 0.3"/>
		<path d="m27 46.3c-0.7 0.6-1.5 0.7-2.2 0.4 1.6 9.4 9.7 16.6 19.6 16.6 3.6 0 6.9-1 9.9-2.6-0.3-0.5-0.4-1.4-0.1-2.5-2.8 1.8-6.1 2.9-9.7 2.9-8.8 0.1-16.1-6.4-17.5-14.8"/>
		<path d="m23.2 43.6c-0.9-0.2-1.8-0.1-2.4 0-1.4 0.2-2.2 0.4-2.2 0.4s0.2-0.4 0.4-0.6c0.1-0.3-0.2-0.3-0.3-0.3s-1.2 0-2.1 0.2c-0.9 0.1-1.9-0.1-1.9-0.1 0.2-0.2 0.3-0.5 0.4-0.6 0-0.1 0-0.2-0.2-0.3s-0.7-0.3-1.7-0.1c-2.1 0.4-2.7-0.4-2.7-0.4s0.1-1.1 0.6-2.7c0.7-2.5 1.6-3.7 1.7-3.9 0.1-0.1-0.1-0.3-0.2-0.3s-1.1 0.1-1.1 0.1 0.5-1.4 1.7-3.6c1.1-2.2 1.5-3.1 1.6-3.5 0.2-0.7-0.9-0.4-0.9-0.4s0.4-0.8 1.1-1.6c0.6-0.9 1.5-1.8 1.7-1.9 0.1-0.2 0-0.2-0.1-0.2h-0.7s0.4-0.6 1.5-1.5c1.1-0.9 1.6-1.3 1.7-1.3 0.2-0.2 0.2-0.3 0-0.4-0.1 0-0.4-0.2-0.4-0.2s0.3-0.3 1.4-0.8c1-0.4 1.8-0.6 2-0.6 0.2-0.1 0.1-0.2 0.1-0.2 0-0.1-0.5-0.4-0.5-0.4s0.3-0.2 1.3-0.7c1-0.5 2-0.6 2-0.6s-1.2-0.3-4.2 0.7c-2.4 0.8-3.4 1.6-3.4 1.6s0.4-0.1 0.8-0.1h0.7s-1.4 0.7-2.7 1.5c-1.3 0.9-1.6 1.2-1.6 1.2s0.4-0.1 0.7-0.1c0.4 0 0.7-0.1 0.7-0.1s-1.4 1.1-2.5 2.3c-1 1.2-1.3 1.8-1.3 1.8s0.4-0.2 0.9-0.3c0.5-0.1 0.7 0 0.7 0s-0.4 0.7-1.1 1.5c-0.7 0.8-1.2 1.6-1.5 2.3s-0.4 1-0.4 1 0.4 0 0.8-0.3c0.4-0.3 0.7-0.3 0.7-0.3s-1.7 3.7-2.1 5.8c-0.2 0.8-0.3 1.5-0.6 2 0 0 0.5-0.1 0.8-0.4l0.4-0.3s-1.2 3.2-1 5.1c0 0.1 1.5 1.1 2.8 0.8 0 0-0.1 0.2-0.8 0.4-0.7 0.1-1 0.5-1 0.5 0.8 0 2.1 0.5 3.5 0.6s2.5-0.1 2.5-0.1-0.1 0.2-0.6 0.4c-0.6 0.3-1.2 0.3-1.2 0.3s0.2 0.2 0.6 0.3c0.5 0.1 1.6 0.1 2.9-0.2 1.2-0.3 2-0.2 3.3-0.3 1.2 0 1.5 0.9 2.1 1.6 0.2 0.2 0.5 0.4 0.8 0.5-0.1-0.6-0.2-1.2-0.2-1.8-0.5-0.5-0.6-1.3-1.3-1.4"/>
		<path d="m64.5 41.3c-0.2-0.3-0.3-0.7-0.5-1 0 0.1 0 0.2 0.1 0.3 0.1 0.2 0.2 0.5 0.4 0.7"/>
		<path d="m56.3 30.5v0.1c-0.1 0.3 0 0.7 0.2 0.6 0.1-0.1 0.2-0.1 0.4-0.2-0.3-0.2-0.5-0.4-0.6-0.5"/>
		<path d="m59.1 40.8c-0.9-2.1-1-4.8-0.4-7.7-0.1-0.2-0.3-0.4-0.4-0.6-0.7 3.2-0.4 6.1 0.8 8.3"/>
		<path d="m53.7 28.3c-0.1-0.1-0.4-0.1-0.7-0.1 0.3 0.2 0.6 0.4 1 0.6 0-0.2-0.1-0.4-0.3-0.5"/>
		<path d="m41.3 42.9c-0.2 0-0.4 0-0.6 0.1-0.7 0.2-1.2 0.9-1.2 1.7 0 1 0.8 1.8 1.8 1.8 0.4 0 0.8-0.1 1.1-0.4 0.4-0.3 0.7-0.8 0.7-1.4 0-1-0.8-1.8-1.8-1.8"/>
		<path d="m51.8 48.5l-0.3-0.3-0.1-0.4-0.2-0.2v-0.1h-0.1v-0.1-0.1l-1.4-1.4-0.3-0.3-1.6-1.6-0.9-0.8-0.8-0.7-1-0.8-0.2-0.2-0.3-0.3-0.4-0.3-0.2-0.3v-5h-5.6v0.2 0.1 0.1l0.1 0.1v0.1 0.2l0.1 0.1 0.1 0.1v0.1l-0.1 0.2v0.1 0.1l0.1 0.2-0.3 0.7-0.1 0.2v0.1 0.1 0.1 0.1l0.2 0.2 0.1 0.1v0.1l0.1 0.1 0.1 0.2v0.1l0.1 0.1v0.1 0.1 0.2 0.1 0.1 0.2 0.1l0.1 0.2 0.1 0.2-0.1 0.2v0.1l0.1 0.1 0.1 0.1 0.1 0.1h0.1l0.1 0.1 0.1 0.2 0.1 0.1 0.2 0.1 0.1 0.2 0.1 0.1c0.1 0 0.1-0.1 0.2-0.1 0.3-0.1 0.7-0.2 1.1-0.2 1.7 0 3.1 1.4 3.1 3.1 0 1-0.5 1.9-1.2 2.5v0.1 0.1l0.1 0.1v0.1 0.1l-0.1 0.2v0.1h0.2l0.1 0.1h0.6 0.1 0.3 0.1l0.2 0.1 0.1 0.2h0.1l0.1 0.2 0.1 0.1 0.2 0.1h0.2 0.3l0.1 0.1 0.1 0.3v0.1l0.2 0.1v-0.1h0.1 0.1l0.2 0.2 0.1 0.1h0.1l0.2 0.2 0.1 0.1 0.2 0.2 0.3 0.5v0.2 0.1l0.1 0.1v0.1l0.1-0.1 0.1 0.1v0.1l-0.1-0.1 0.1 0.1v0.1l1.3-0.1 1.8-0.2h0.2 0.1v-0.1l0.1-0.1v-0.2l-0.1-0.1h-0.2-0.1v-0.1-0.2l-0.2-0.4v-0.1-0.1l0.1-0.1h0.1l0.1-0.1v-0.1-0.1-0.3l0.1-0.1v-0.1l0.4-0.5z"/>
	</g>
</g>
<g id="White" display="none">
	<g display="inline" fill="#fff">
		<path d="m97.3 14.9c-0.3-0.9-0.9-1.6-2-1.6-1.4 0-2.2 1.3-2.2 3.8s0.7 3.8 2.3 3.8c0.9 0 1.5-0.3 2.1-1.6l1.9 0.5c-0.6 1.9-2.1 2.8-4 2.8-2.8 0-4.3-2-4.3-5.6 0-3.5 1.6-5.6 4.3-5.6 2.1 0 3.3 0.9 3.8 2.8l-1.9 0.7z"/>
		<path d="m105.3 22.6l-0.1-0.7c-0.7 0.5-1.5 0.8-2.4 0.8-1.4 0-2.1-1-2.1-2.1 0-1.8 1.4-2.7 4.5-3.1v-0.7c0-0.6-0.5-0.9-1.1-0.9-0.9 0-1.3 0.5-1.7 1l-1.2-0.9c0.5-0.8 1.8-1.5 2.9-1.4 2.1 0 3 0.8 3 3.1v3.7c0 0.4 0 0.8 0.2 1.1h-2zm-0.2-3.8c-1.2 0.2-2.6 0.5-2.6 1.6 0 0.6 0.4 0.9 0.9 0.9 0.6 0 1.3-0.5 1.7-0.8v-1.7z"/>
		<rect y="11.8" x="109.2" height="10.8" width="1.9"/>
		<path d="m113.4 11.6h1.9v1.7h-1.9v-1.7zm1.9 11h-1.9v-7.8h1.9v7.8z"/>
		<path d="m119.8 16.3v6.3h-1.9v-6.3h-1.1v-1.5h1.1v-1c0-1.7 0.7-2.2 2.2-2.2h1.2v1.5h-0.5c-0.8 0-1 0.2-1 0.8v0.8h1.6v1.5h-1.6z"/>
		<path d="m125.8 14.6c2.1 0 3.4 1.6 3.4 4s-1.3 4-3.4 4c-2.1 0-3.4-1.6-3.4-4s1.3-4 3.4-4m0 1.5c-1 0-1.5 0.8-1.5 2.5s0.5 2.5 1.5 2.5 1.5-0.8 1.5-2.5-0.5-2.5-1.5-2.5"/>
		<path d="m130.8 22.6v-7.8h1.7v1.3c0.4-0.9 1.1-1.5 2.2-1.5v2h-0.3c-0.9 0-1.7 1.1-1.7 1.3v4.7h-1.9z"/>
		<path d="m136.2 22.6v-7.8h1.7v0.8c0.7-0.5 1.5-1 2.4-1 1.6 0 2.3 1 2.3 2.6v5.3h-1.9v-5.1c0-1-0.3-1.4-1-1.4-0.8 0-1.4 0.5-1.7 0.8v5.6h-1.8z"/>
		<path d="m144.9 11.6h1.9v1.7h-1.9v-1.7zm1.9 11h-1.9v-7.8h1.9v7.8z"/>
		<path d="m153.1 22.6l-0.1-0.7c-0.7 0.5-1.5 0.8-2.4 0.8-1.4 0-2.1-1-2.1-2.1 0-1.8 1.4-2.7 4.5-3.1v-0.7c0-0.6-0.5-0.9-1.1-0.9-0.9 0-1.3 0.5-1.7 1l-1.2-0.9c0.5-0.8 1.8-1.5 2.9-1.4 2.1 0 3 0.8 3 3.1v3.7c0 0.4 0 0.8 0.2 1.1h-2zm-0.2-3.8c-1.2 0.2-2.6 0.5-2.6 1.6 0 0.6 0.4 0.9 0.9 0.9 0.6 0 1.3-0.5 1.7-0.8v-1.7z"/>
		<path d="m167.6 14.6c-0.3-0.8-1-1.4-1.9-1.4s-1.5 0.4-1.5 1.2c0 1.9 5.6 1.5 5.6 5 0 2.2-1.4 3.3-3.8 3.3-1.8 0-3.4-1-4-2.6l1.7-0.7c0.5 1 1.1 1.7 2.4 1.7 1 0 1.8-0.4 1.8-1.4 0-2.1-5.6-1.7-5.6-5 0-1.9 1.6-3 3.5-3 1.7 0 3.2 0.9 3.8 2.4l-2 0.5z"/>
		<path d="m171.8 14.8v-2.6h1.9v2.6h1.5v1.5h-1.5v4.4c0 0.4 0.2 0.5 0.7 0.5 0.3 0 0.6-0.1 0.9-0.2v1.5c-0.5 0.1-1 0.1-1.5 0.1-1.4 0-1.9-0.7-1.9-1.8v-4.6h-1.1v-1.5h1z"/>
		<path d="m181.1 22.6l-0.1-0.7c-0.7 0.5-1.5 0.8-2.4 0.8-1.4 0-2.1-1-2.1-2.1 0-1.8 1.4-2.7 4.5-3.1v-0.7c0-0.6-0.5-0.9-1.1-0.9-0.9 0-1.3 0.5-1.7 1l-1.2-0.9c0.5-0.8 1.8-1.5 2.9-1.4 2.1 0 3 0.8 3 3.1v3.7c0 0.4 0 0.8 0.2 1.1h-2zm-0.2-3.8c-1.2 0.2-2.6 0.5-2.6 1.6 0 0.6 0.4 0.9 0.9 0.9 0.6 0 1.3-0.5 1.7-0.8v-1.7z"/>
		<path d="m185.2 14.8v-2.6h1.9v2.6h1.5v1.5h-1.5v4.4c0 0.4 0.2 0.5 0.7 0.5 0.3 0 0.6-0.1 0.9-0.2v1.5c-0.5 0.1-1 0.1-1.5 0.1-1.4 0-1.9-0.7-1.9-1.8v-4.6h-1.1v-1.5h1z"/>
		<path d="m191.5 19c0 1.6 0.7 2.2 1.6 2.2s1.3-0.4 1.7-0.9l1.3 0.8c-0.7 1.1-1.8 1.6-3.3 1.6-2 0-3.3-1.6-3.3-4 0-2.5 1.3-4 3.4-4 2 0 3.2 1.7 3.2 3.6v0.7h-4.6zm3-1.3c0-1.1-0.6-1.7-1.5-1.7s-1.5 0.6-1.5 1.7h3z"/>
		<path d="m209.9 11.8h2.1v6.8c0 3.2-1.9 4.2-4.1 4.2s-4.2-1-4.2-4.2v-6.8h2.1v6.9c0 1.8 0.7 2.4 2.1 2.4s2.1-0.6 2.1-2.4v-6.9z"/>
		<path d="m214.4 22.6v-7.8h1.7v0.8c0.7-0.5 1.5-1 2.4-1 1.6 0 2.3 1 2.3 2.6v5.3h-1.9v-5.1c0-1-0.3-1.4-1-1.4-0.8 0-1.4 0.5-1.7 0.8v5.6h-1.8z"/>
		<path d="m223.1 11.6h1.9v1.7h-1.9v-1.7zm1.8 11h-1.9v-7.8h1.9v7.8z"/>
		<polygon points="226.5 14.8 228.3 14.8 229.6 20.1 229.6 20.1 231 14.8 232.8 14.8 230.6 22.6 228.6 22.6"/>
		<path d="m235.4 19c0 1.6 0.7 2.2 1.6 2.2s1.3-0.4 1.7-0.9l1.3 0.8c-0.7 1.1-1.8 1.6-3.3 1.6-2 0-3.3-1.6-3.3-4 0-2.5 1.3-4 3.4-4 2 0 3.2 1.7 3.2 3.6v0.7h-4.6zm3-1.3c0-1.1-0.6-1.7-1.5-1.7s-1.5 0.6-1.5 1.7h3z"/>
		<path d="m241.9 22.6v-7.8h1.7v1.3c0.5-0.9 1.1-1.5 2.2-1.5v2h-0.3c-0.9 0-1.7 1.1-1.7 1.3v4.7h-1.9z"/>
		<path d="m251.3 16.8c-0.4-0.4-0.9-0.8-1.5-0.8-0.7 0-1 0.3-1 0.8 0 1.3 3.9 0.8 3.9 3.6 0 1.6-1.2 2.3-2.9 2.3-1.2 0-2.3-0.6-3-1.6l1.2-0.9c0.4 0.6 1 1.1 1.8 1.1 0.7 0 1.1-0.4 1.1-0.9 0-1.3-3.9-0.9-3.9-3.6 0-1.5 1.2-2.3 2.6-2.3 1 0 2.1 0.4 2.7 1.2l-1 1.1z"/>
		<path d="m254.5 11.6h1.9v1.7h-1.9v-1.7zm1.9 11h-1.9v-7.8h1.9v7.8z"/>
		<path d="m259 14.8v-2.6h1.9v2.6h1.5v1.5h-1.5v4.4c0 0.4 0.2 0.5 0.7 0.5 0.3 0 0.6-0.1 0.9-0.2v1.5c-0.5 0.1-1 0.1-1.5 0.1-1.4 0-1.9-0.7-1.9-1.8v-4.6h-1.1v-1.5h1z"/>
		<path d="m263.5 23.8c0.3 0.1 0.5 0.1 0.8 0.1 0.6 0 1-0.2 1.2-0.6s0.3-0.6 0.3-0.9-0.2-0.6-0.2-0.9l-2.1-6.7h1.9l1.3 4.8 1.3-4.8h1.9l-2.5 7.8c-0.8 2.2-1.5 2.8-3 2.8-0.5 0-0.7 0-0.9-0.1v-1.5z"/>
		<polygon points="91.6 47.6 91.6 30.4 96.2 30.4 99.5 42.4 99.5 42.4 102.8 30.4 107.5 30.4 107.5 47.6 104.6 47.6 104.6 34.1 104.6 34.1 100.7 47.6 98.3 47.6 94.5 34.1 94.4 34.1 94.4 47.6"/>
		<path d="m118.1 47.8c-4.7 0-7.2-3.2-7.2-8.8s2.5-8.8 7.2-8.8 7.2 3.2 7.2 8.8-2.6 8.8-7.2 8.8m0-14.9c-2.7 0-3.9 2-3.9 6.1 0 4 1.2 6.1 3.9 6.1s3.9-2 3.9-6.1c0-4-1.2-6.1-3.9-6.1"/>
		<polygon points="128.7 47.6 128.7 30.4 132.1 30.4 138.8 42.1 138.9 42.1 138.9 30.4 141.9 30.4 141.9 47.6 138.8 47.6 131.8 35.4 131.7 35.4 131.7 47.6"/>
		<polygon points="157.1 30.4 157.1 33.2 152.6 33.2 152.6 47.6 149.4 47.6 149.4 33.2 144.9 33.2 144.9 30.4"/>
		<polygon points="160.1 47.6 160.1 30.4 171.4 30.4 171.4 33.2 163.4 33.2 163.4 37.3 169.2 37.3 169.2 40 163.4 40 163.4 44.8 171.7 44.8 171.7 47.6"/>
		<path d="m174.8 47.6v-17.2h6.8c3.9 0 5.5 2.3 5.5 5.1 0 2.1-1 3.8-3.1 4.4l3.8 7.6h-3.6l-3.2-7h-2.8v7h-3.4zm3.3-9.7h2.4c2.6 0 3.3-0.8 3.3-2.4s-1-2.4-2.8-2.4h-3v4.8z"/>
		<polygon points="191 47.6 191 30.4 202.4 30.4 202.4 33.2 194.3 33.2 194.3 37.3 200.2 37.3 200.2 40 194.3 40 194.3 44.8 202.6 44.8 202.6 47.6"/>
		<polygon points="211.2 37.2 214.1 30.4 217.5 30.4 212.8 40.7 212.8 47.6 209.5 47.6 209.5 40.7 204.8 30.4 208.2 30.4"/>
		<path d="m229 30.4h6.4c3.4 0 5.6 1.1 5.8 4.2 0 1.8-0.7 3.2-2.6 3.9 2.2 0.9 3 1.9 3 4.5 0 2.7-1.9 4.5-6.2 4.5h-6.4v-17.1zm3.3 6.9h3.3c1.6 0 2.3-0.9 2.3-2.1s-0.8-2.1-2.3-2.1h-3.3v4.2zm0 7.6h3.3c1.9 0 2.7-0.9 2.7-2.5s-0.8-2.5-2.7-2.5h-3.3v5z"/>
		<path d="m248.6 30.4h4.1l4.9 17.2h-3.3l-0.9-3.7h-5.4l-1 3.7h-3.3l4.9-17.2zm0.1 10.8h4l-1.9-7.5-2.1 7.5z"/>
		<polygon points="263.7 37.2 266.6 30.4 270 30.4 265.3 40.7 265.3 47.6 262.1 47.6 262.1 40.7 257.3 30.4 260.7 30.4"/>
		<polygon points="91.7 60.9 91.7 53.3 96.8 53.3 96.8 54.5 93.2 54.5 93.2 56.3 95.8 56.3 95.8 57.6 93.2 57.6 93.2 59.7 96.9 59.7 96.9 60.9"/>
		<polygon points="99.4 58.1 97.9 55.4 99.3 55.4 100.1 57 100.9 55.4 102.3 55.4 100.8 58.1 102.4 60.9 101 60.9 100.1 59.2 99.2 60.9 97.8 60.9"/>
		<path d="m103.9 55.4v-1.8h1.3v1.8h1.1v1.1h-1.1v3.1c0 0.3 0.1 0.4 0.5 0.4 0.2 0 0.4-0.1 0.6-0.1v1.1c-0.4 0-0.7 0.1-1 0.1-1 0-1.4-0.5-1.4-1.3v-3.3h-0.8v-1.1h0.8z"/>
		<path d="m107.4 60.9v-5.5h1.2v0.9c0.3-0.7 0.8-1 1.6-1.1v1.4h-0.2c-0.7 0-1.2 0.8-1.2 0.9v3.4h-1.4z"/>
		<path d="m114.2 60.9l-0.1-0.5c-0.5 0.4-1 0.6-1.7 0.6-1 0-1.5-0.7-1.5-1.5 0-1.3 1-1.9 3.2-2.2v-0.3c0-0.4-0.3-0.7-0.8-0.7-0.6 0-1 0.3-1.2 0.7l-0.8-0.6c0.3-0.6 1.3-1 2.1-1 1.5 0 2.1 0.6 2.1 2.2v2.6c0 0.3 0 0.6 0.1 0.8h-1.4zm-0.2-2.6c-0.9 0.2-1.8 0.4-1.8 1.1 0 0.4 0.3 0.6 0.6 0.6 0.4 0 0.9-0.4 1.2-0.6v-1.1z"/>
		<path d="m118.9 55.3c1.5 0 2.4 1.1 2.4 2.9s-0.9 2.9-2.4 2.9-2.4-1.1-2.4-2.9 0.9-2.9 2.4-2.9m0 1.1c-0.7 0-1.1 0.6-1.1 1.8s0.4 1.8 1.1 1.8 1.1-0.6 1.1-1.8-0.3-1.8-1.1-1.8"/>
		<path d="m122.5 60.9v-5.5h1.2v0.9c0.3-0.7 0.8-1 1.6-1.1v1.4h-0.2c-0.7 0-1.2 0.8-1.2 0.9v3.4h-1.4z"/>
		<path d="m131 60.9h-1.1l-0.1-0.6c-0.5 0.5-0.9 0.7-1.5 0.7-1.5 0-2.2-1.3-2.2-3 0-1.4 0.8-2.7 2.2-2.7 0.4 0 1.1 0.3 1.3 0.6v-2.7h1.3v7.7zm-1.3-4.1c-0.3-0.2-0.6-0.5-1-0.5-0.8 0-1.2 0.6-1.2 1.8s0.4 1.8 1.2 1.8c0.6 0 0.7-0.3 1-0.5v-2.6z"/>
		<path d="m132.7 53.2h1.3v1.2h-1.3v-1.2zm1.3 7.7h-1.3v-5.5h1.3v5.5z"/>
		<path d="m135.6 60.9v-5.5h1.2v0.6c0.5-0.3 1.1-0.7 1.7-0.7 1.1 0 1.6 0.7 1.6 1.8v3.8h-1.3v-3.6c0-0.7-0.2-1-0.7-1-0.6 0-1 0.3-1.2 0.6v4h-1.3z"/>
		<path d="m144.6 60.9l-0.1-0.5c-0.5 0.4-1 0.6-1.7 0.6-1 0-1.5-0.7-1.5-1.5 0-1.3 1-1.9 3.2-2.2v-0.3c0-0.4-0.3-0.7-0.8-0.7-0.6 0-1 0.3-1.2 0.7l-0.8-0.6c0.3-0.6 1.3-1 2.1-1 1.5 0 2.1 0.6 2.1 2.2v2.6c0 0.3 0 0.6 0.1 0.8h-1.4zm-0.1-2.6c-0.9 0.2-1.8 0.4-1.8 1.1 0 0.4 0.3 0.6 0.6 0.6 0.4 0 0.9-0.4 1.2-0.6v-1.1z"/>
		<path d="m147.3 60.9v-5.5h1.2v0.9c0.3-0.7 0.8-1 1.5-1.1v1.4h-0.2c-0.7 0-1.2 0.8-1.2 0.9v3.4h-1.3z"/>
		<path d="m150.8 61.8h0.6c0.5 0 0.7-0.1 0.9-0.4 0.1-0.3 0.2-0.4 0.2-0.6s-0.1-0.4-0.2-0.7l-1.5-4.7h1.3l0.9 3.4 0.9-3.4h1.3l-1.7 5.5c-0.6 1.6-1.1 2-2.1 2h-0.6v-1.1z"/>
		<path d="m162.7 61.1c-2.1 0-3.2-1.4-3.2-3.9s1.1-3.9 3.2-3.9 3.2 1.4 3.2 3.9c0.1 2.4-1.1 3.9-3.2 3.9m0-6.7c-1.2 0-1.8 0.9-1.8 2.7s0.5 2.7 1.8 2.7c1.2 0 1.8-0.9 1.8-2.7s-0.6-2.7-1.8-2.7"/>
		<path d="m167.3 55.4h1.3v0.5c0.4-0.4 0.8-0.6 1.4-0.6 1.5 0 2.2 1.3 2.2 3 0 1.4-0.8 2.7-2.2 2.7-0.4 0-1.1-0.3-1.3-0.6v2.6h-1.3v-7.6zm1.3 4.1c0.3 0.2 0.6 0.5 1 0.5 0.8 0 1.2-0.6 1.2-1.8s-0.4-1.8-1.2-1.8c-0.6 0-0.7 0.3-1 0.5v2.6z"/>
		<path d="m173.5 55.4h1.3v0.5c0.4-0.4 0.8-0.6 1.4-0.6 1.5 0 2.2 1.3 2.2 3 0 1.4-0.8 2.7-2.2 2.7-0.4 0-1.1-0.3-1.3-0.6v2.6h-1.3v-7.6zm1.3 4.1c0.3 0.2 0.6 0.5 1 0.5 0.8 0 1.2-0.6 1.2-1.8s-0.4-1.8-1.2-1.8c-0.6 0-0.7 0.3-1 0.5v2.6z"/>
		<path d="m181.7 55.3c1.5 0 2.4 1.1 2.4 2.9s-0.9 2.9-2.4 2.9-2.4-1.1-2.4-2.9 0.9-2.9 2.4-2.9m0 1.1c-0.7 0-1.1 0.6-1.1 1.8s0.4 1.8 1.1 1.8 1.1-0.6 1.1-1.8-0.3-1.8-1.1-1.8"/>
		<path d="m185.3 60.9v-5.5h1.2v0.9c0.3-0.7 0.8-1 1.6-1.1v1.4h-0.2c-0.7 0-1.2 0.8-1.2 0.9v3.4h-1.4z"/>
		<path d="m189.7 55.4v-1.8h1.3v1.8h1.1v1.1h-1.1v3.1c0 0.3 0.1 0.4 0.5 0.4 0.2 0 0.4-0.1 0.6-0.1v1.1c-0.4 0-0.7 0.1-1 0.1-1 0-1.4-0.5-1.4-1.3v-3.3h-0.8v-1.1h0.8z"/>
		<path d="m197.8 55.4v5.5h-1.2v-0.6c-0.5 0.3-1.1 0.7-1.7 0.7-1.1 0-1.6-0.7-1.6-1.8v-3.8h1.3v3.6c0 0.7 0.2 1 0.7 1 0.6 0 1-0.3 1.2-0.6v-4h1.3z"/>
		<path d="m199.3 60.9v-5.5h1.2v0.6c0.5-0.3 1.1-0.7 1.7-0.7 1.1 0 1.6 0.7 1.6 1.8v3.8h-1.3v-3.6c0-0.7-0.2-1-0.7-1-0.6 0-1 0.3-1.2 0.6v4h-1.3z"/>
		<path d="m205.5 53.2h1.3v1.2h-1.3v-1.2zm1.3 7.7h-1.3v-5.5h1.3v5.5z"/>
		<path d="m208.7 55.4v-1.8h1.3v1.8h1.1v1.1h-1.1v3.1c0 0.3 0.1 0.4 0.5 0.4 0.2 0 0.4-0.1 0.6-0.1v1.1c-0.4 0-0.7 0.1-1 0.1-1 0-1.4-0.5-1.4-1.3v-3.3h-0.7v-1.1h0.7z"/>
		<path d="m212 61.8h0.6c0.5 0 0.7-0.1 0.9-0.4 0.1-0.3 0.2-0.4 0.2-0.6s-0.1-0.4-0.2-0.7l-1.5-4.7h1.3l0.9 3.4 0.9-3.4h1.3l-1.7 5.5c-0.6 1.6-1.1 2-2.1 2h-0.6v-1.1z"/>
		<path d="m44.4 28.6c-8.3 0-15 6.7-15 15s6.7 15 15 15 15-6.7 15-15c-0.1-8.3-6.8-15-15-15m0 27.1c-6.7 0-12.1-5.4-12.1-12.1s5.4-12.1 12.1-12.1 12.1 5.4 12.1 12.1c0.1 6.6-5.4 12.1-12.1 12.1"/>
		<path d="m10.4 41.6s0.7 0.8 2.7 0.4c1-0.2 1.5 0 1.7 0.1s0.2 0.2 0.2 0.3c0 0.2-0.2 0.5-0.4 0.6 0 0 1 0.3 1.9 0.1s2-0.2 2.1-0.2 0.4 0 0.3 0.3-0.4 0.6-0.4 0.6 0.8-0.1 2.2-0.4c0.6-0.1 1.5-0.2 2.4 0s0.9 1.4 2.1 1.8 1.2-2.6 1.2-3.4 0.3-1.2 0.9-1.7c1-0.8 0.8-2 0.6-2.8-0.1-0.8 1.5-1.7 2-2.6 0.4-1 0.1-2-0.1-2.4s0.1-0.7 0.4-1c0.5-0.5 1.4-2 1-2.5s-2.4 0-4.5 2c-2.1 1.9-3.6 4.2-4.2 5.2-0.1 0.1-0.2-0.1 0-0.5 0.1-0.4 1.3-3.3 3.7-5.6s4.6-3.2 6.3-2.7c1.7 0.4 1.4 1.8 1.1 2.6s-1.2 1.3-1.4 2.3c-0.2 0.9 0.1 1.6 0.2 2.5s-0.2 1.5-1 2.4c-0.4 0.4-1.1 1.2-1.1 1.6 0 0.1 0.3 0.6-0.2 2s-1.7 1.8-1.7 2.2 0 2.3-1.2 3.4-2.6 0.7-3.2 0-0.9-1.6-2.1-1.6c-1.2 0.1-2 0-3.3 0.3-1.2 0.3-2.4 0.3-2.9 0.2s-0.6-0.3-0.6-0.3 0.6-0.1 1.2-0.3c0.5-0.2 0.6-0.4 0.6-0.4s-1.2 0.2-2.5 0.1c-1.4-0.1-2.7-0.6-3.5-0.6 0 0 0.3-0.4 1-0.5s0.8-0.4 0.8-0.4c-1.4 0.3-2.9-0.6-2.9-0.7-0.2-1.9 0.9-5.3 0.9-5.3s-0.1 0-0.4 0.3c-0.4 0.3-0.8 0.4-0.8 0.4 0.2-0.5 0.4-1.1 0.6-2 0.4-2.1 2.1-5.8 2.1-5.8s-0.3 0-0.7 0.3c-0.4 0.3-0.8 0.3-0.8 0.3s0.1-0.3 0.4-1c0.3-0.7 0.8-1.5 1.5-2.3s1.1-1.5 1.1-1.5-0.2-0.1-0.7 0c-0.5 0.1-0.9 0.3-0.9 0.3s0.3-0.6 1.3-1.8c1-1.2 2.5-2.3 2.5-2.3s-0.3 0.2-0.7 0.1c-0.3 0-0.7 0.1-0.7 0.1s0.3-0.3 1.6-1.2c1.3-0.9 2.7-1.5 2.7-1.5s-0.3 0-0.7 0c-0.4 0-0.8 0.1-0.8 0.1s1-0.8 3.4-1.6c3-1 4.2-0.7 4.2-0.7s-1 0.1-2 0.6c-1 0.4-1.3 0.7-1.3 0.7s0.4 0.3 0.5 0.4c0 0.1 0.1 0.2-0.1 0.2-0.2 0.1-1 0.2-2 0.6s-1.4 0.8-1.4 0.8 0.3 0.1 0.4 0.2c0.2 0.1 0.2 0.2 0 0.4-0.1 0.1-0.5 0.4-1.7 1.3-1.1 0.9-1.5 1.5-1.5 1.5s0.6 0 0.7 0c0.1 0 0.2 0.1 0.1 0.2-0.1 0.2-1 1.1-1.6 1.9-0.6 0.9-1.1 1.6-1.1 1.6s1.1-0.3 0.9 0.4c-0.1 0.4-0.5 1.3-1.6 3.5s-1.7 3.6-1.7 3.6 1-0.1 1.1-0.1c0.1 0 0.2 0.1 0.2 0.3-0.1 0.1-0.9 1.4-1.7 3.9-0.6 1.6-0.7 2.7-0.7 2.7"/>
		<path d="m73.1 47.1s-0.5-0.1-0.8-0.1-0.3 0.5-0.3 0.8c0.1 1.8-0.1 4-0.1 4.2s-0.8-0.3-1-0.4-0.3 0.1-0.3 0.3c-0.3 2.8-1.6 5.9-1.6 5.9s-0.2-0.4-0.3-0.6c-0.1-0.2-0.2-0.2-0.3-0.1-0.6 0.6-1.1 1.8-1.4 3s-1.1 2.1-1.1 2.1c-0.1-0.1-0.2-0.8-0.2-1-0.1-0.2-0.3-0.1-0.4 0s-0.4 1-1.3 2.8-1.5 3.3-2.7 3.4c-0.9 0.1-1.3-2.4-1.3-2.4s-0.3 0.2-0.5 0.6c-0.2 0.4-0.2 0.9-0.2 0.9-0.9-2.6-0.5-4.6-0.5-4.8s-0.1-0.3-0.3-0.3c-0.1 0.1-0.5 0.4-0.5 0.4-0.1-0.4-0.3-0.9-0.6-1.5-0.3-0.5-1.1-0.3-1.7-0.2-0.5 0-0.7-0.5-0.3-1.6s1.9-1.7 2.5-2.1c0.6-0.3 0.1-0.9 0.3-1.6 0.4-1.2 2.1-1.7 2.3-2.1 0.2-0.3-0.2-1 0.1-1.9s2-2 2-2c-0.2-1.6 0-3.3 0.7-4.3s2-0.1 2.4 2.5c0.5 3.7-1 6.2-1.7 7.7s-1 1.6-0.9 1.7 0.5 0 1.1-0.8c0.6-0.9 3.3-4.5 2.8-8.6-0.6-4.1-2.7-5.1-4.4-4.2s-2 2.5-1.6 5.5c0 0-1 0.8-1.3 1.4-0.4 0.7-0.2 1.9-0.4 2.1s-1 0.6-1.6 1.4-0.5 1.9-0.9 2.1-1.8 0.8-2.3 2.6c-0.6 1.8 0 3.2 0.9 3 0.8-0.2 2.1-0.3 2.1 1-0.1 1.3-0.2 2.7 0 3.8 0 0 0.3-1 0.6-1.5 0 0 0.9 4.5 2.6 6.2 0 0 0-0.6-0.2-1.3-0.1-0.7 0.1-1.1 0.1-1.1s0.2 0.7 1.1 0.7c1.6-0.1 3.4-3.8 3.4-3.8-0.1 0.9 0.2 1.2 0.2 1.2 1.5-1.7 2.5-4.2 2.9-5.5s0.9-1.9 0.9-1.9 0.2 0.1 0.2 0.6c0 0.5 0.2 1 0.2 1 1.9-4.3 2.4-7.5 2.4-7.5s0.2 0.1 0.4 0.6c0.1 0.5 0.5 0.9 0.5 0.9 1.1-3.7 0.9-6 0.9-6s0.2 0.1 0.6 0.3c0.4 0.3 0.7 0.8 0.7 0.8 0.1-1.8-0.2-3-0.6-4.3-0.3-1.3-0.7-2.7-0.7-2.7 0.6 0 1.1 0.5 1.1 0.5-1.1-4.3-2.2-6-2.2-6s0.2 0 0.5 0.1c0.3 0 0.7 0.2 0.7 0.2-1.1-2.6-2.7-4.1-2.7-4.1 0.3-0.2 1 0 1 0-1.9-3.3-5.8-4.5-5.8-4.5s2.3 1.3 3.4 2.9c0.1 0.2-0.2 0.3-0.4 0.3-0.3 0-0.3 0.2-0.2 0.4s1.7 1.8 2.2 3c0.1 0.2-0.8 0-0.6 0.5s1.7 2.8 2.1 4.6c0 0-1.3-0.3-1.1 0.1-0.8 0.7 0.3 2.8 1.4 6.7"/>
		<path d="m48.4 2s-1.3-0.1-3.1 0.2c-1.8 0.2-2.4 0.5-3.1 0.5-0.7 0.1-0.9 0.1-0.9 0.1s0.4 0.5 0.9 0.5c0.5 0 0.9 0 1.1 0.2 0 0-0.8 0.1-2.3 0.7-1.9 0.7-2 0.8-4 1.4 0 0 0.5 0.3 1 0.3 0.4 0 0.7 0.2 0.7 0.2s-1.4 0.3-3 0.9c-1.6 0.6-1.9 1-2.7 1 0 0 0.4 0.2 1 0.3 0.4 0 0.8 0.1 0.8 0.1s-0.6 0.3-2.1 1.1c-1.4 0.8-1.9 1-2.8 1.2 0 0 0.6 0.4 1.1 0.4h0.5s-0.9 0.6-2.3 1.3-1.6 0.8-2.1 1.3c0 0 0.7 0.1 1 0.2 0.1 0.1 0.3 0.1 0.4 0.1 0 0-0.9 0.5-2.2 1.3-1.3 0.9-1.7 1.5-1.7 1.5s2.8-1.7 5.2-2.4c0.2-0.1 0.3-0.3 0.1-0.5-0.1-0.1-0.7-0.5-0.7-0.5s0.2-0.1 1.7-0.9c1.6-0.8 2.4-1.1 2.6-1.2s0-0.3-0.1-0.4-0.7-0.4-0.7-0.4 0.3-0.2 1-0.5c1.3-0.6 3.2-1.2 3.3-1.3 0.2-0.1 0.2-0.2 0-0.3-0.1-0.1-0.6-0.5-0.6-0.5s0.5-0.3 1.5-0.5c1-0.3 1.9-0.6 2.3-0.7 0.6-0.3 0.8-0.4 0.7-0.7-0.1-0.2-0.3-0.5-0.3-0.5s0.5-0.2 1.2-0.5c1-0.3 1.6-0.4 2.5-0.6s1-0.3 1-0.5c0-0.3-0.2-0.6-0.2-0.6s0.1-0.1 1.1-0.2c1.1-0.1 2-0.1 2.7-0.1s1.1 0.1 1.4 0 0.4-0.7 0.4-0.7 0.8-0.1 2 0.2c1.2 0.3 1.7 0.5 2 0.6s0.5 0 0.5-0.3c0.1-0.3 0.2-0.5 0.2-0.5s0.8 0 2.1 0.5c1.3 0.6 2 1.1 2.3 1.3 0.2 0.1 0.3 0 0.5-0.2l0.3-0.3s0.1 0 0.5 0.1c0.4 0.1 1 0.4 1.5 0.8 0.6 0.4 0.7 0.7 1.2 0.9 0.2 0 0.4-0.4 0.5-0.7s0.3-0.5 0.3-0.5 0.2 0 0.7 0.3c0.5 0.3 1.1 0.7 1.5 1.1h0.1s0-0.5-0.3-0.9c-0.5-0.7-1.5-1.5-2.4-2.1s-1.2-0.8-1.4-1c-0.1-0.1-0.1-0.2-0.1-0.2s-0.1 0.3 0.2 0.8c0.3 0.6 0.2 0.9 0.2 0.9s-1-0.6-2.2-1.1c-1.1-0.5-1.5-0.7-2-1-0.6-0.3-0.7-0.4-0.7-0.4s0 0.6 0.3 1c0.3 0.3 0.3 0.4 0.3 0.4s-1.5-0.7-3.5-1.2c-2-0.4-3.1-0.8-3.1-0.8s0.2 0.7 0.5 1c0.3 0.3 0.4 0.5 0.4 0.5s-1.6-0.4-3.3-0.5c-1.6-0.1-2.3 0-2.6 0h-0.3s0.1 0.3 0.7 0.6c0.6 0.2 0.8 0.4 0.8 0.4"/>
		<path d="m74.8 8.1c0.6 1 0.4 2.7-0.2 3.5-0.5 0.8-1.4 1.3-1.9 1.9s-1 1.6-1.2 2.3-0.6 1.4-1.2 1.4-1.2-0.5-1.5-1.3-0.4-1.8-1.7-2.5-3.7-1.5-3.7-3.1 1.5-2.1 2.5-3.3 2.3-2.1 3.7-2.1c1.6 0.2 4.1 1.4 5.2 3.2"/>
		<path d="m79.8 20.1c-0.2-0.4-0.3-0.7-0.3-0.7s0.1-0.2 0.4-0.4c0.5-0.2 0.9-0.2 0.9-0.6 0.1-1.7-1.2-2.9-1.2-2.9 0.2-0.1 0.5 0 0.9 0 0.4 0.1 0.4-0.1 0.4-0.1-0.6-1.8-2.5-3-2.5-3 0.3-0.2 0.7 0 1 0.1s0.6 0 0.6 0c-0.3-1.1-1.1-1.9-2.2-2.5s-1.9-0.6-2-0.6 0 0.1 0 0.2c0.1 0.1 0.6 0.3 1 0.7 0.5 0.5 0.6 0.7 0.6 0.7s0.1 0.3-0.4 0.6c-0.5 0.4-1 0.7-1 0.8-0.1 0.1 0 0.2 0.1 0.3s0.7 0.4 1.5 1c0.7 0.6 1 1 0.8 1.1s-0.7 0.2-0.6 0.5 0.6 0.5 0.9 0.8 0.7 0.6 0.3 1.6c-0.2 0.6-0.6 0.8-0.9 0.8s-0.5 0-0.5 0.1c0.1 0.1 0.6 1.1 0.3 1.6-0.2 0.5-0.5 0.8-1.1 0.7-0.3 0-0.4 0-0.3 0.1s0.6 0.8 0.4 1.8c-0.1 0.6-0.6 0.7-1 0.5-0.2-0.6-0.5-1.1-0.7-1.7-0.1-0.2-0.3-0.3-0.5-0.2s-0.3 0.3-0.2 0.5c0.1 0.1 0.1 0.3 0.2 0.4 0.2 0.4 0.3 0.7 0.5 1.1 0 0.4 0 0.9-0.1 1.3-0.1 0.6-0.6 0.8-0.9 0.1s-0.6-1.6-0.6-1.8c0-0.1-0.5 0.1-0.5 0.3s-0.2 1.4-0.7 1.5c-0.2 0.1-0.4-0.4-0.4-0.9 0-0.6 0.3-1.6-0.4-2.1-0.2-0.1-0.3-0.2-0.5-0.1-0.2 0-0.3 0.2-0.3 0.2-0.1 1.6-0.5 2.5-0.5 2.5s0.7-0.7 0.7-0.3c0 0.4 0.1 1.6 0.5 2.1s0.8 0.7 1.2 0.7c0.1 0-0.1-0.4 0.5-1 0.1-0.2 0.3-0.3 0.3-0.1s0.3 1 1.2 1c0.7 0 1.1-0.5 1.3-1.1 1.7 5.1 1.5 10-0.3 13.3 2.2-3.3 2.5-8.6 0.7-14.1 0.5-0.2 1.4 0 1.8-0.8v-0.1c2.3 4.7 2.8 9.4 1.5 12.9 1.7-3.6 1.3-8.9-1.3-14 0-0.4-0.2-0.6-0.2-0.6s0.6-0.4 1.3-0.4c0.2 0 0.3-0.1 0.4-0.2 3 4.4 4.2 9.2 3.4 12.9 1.2-4.2-0.1-9.7-3.5-14.5"/>
		<path d="m57.9 7.6c0.3 0.1 0.4 0.3 0.2 0.7s-0.5 0.6-1 0.6c-1 0.1-1.8-0.6-3.7-0.5-1.1 0-2.3 0.2-3.3 0.7s-1.2 0.7-1.3 0.7c0 0 0-0.2 0.1-0.3 0.4-0.4 2.2-1.7 5-2.2 2.2-0.3 3.5 0 4 0.3"/>
		<path d="m56.3 9.3c0.1 0 0.1 0 0.2 0.1 0 0.1 0.1 0.5 0 1-0.2 0.5-0.4 0.9-0.9 1.4-0.6 0.4-1.6 0.3-2-0.5-0.6-0.9-0.3-2.3 0.6-2.5 0.4-0.1 0.5 0.2 0.5 0.4 0.1 0.4-0.2 0.6 0 0.9s0.6 0.4 1 0 0.4-0.5 0.5-0.6c0-0.1 0-0.2 0.1-0.2"/>
		<path d="m69.8 19.7c-0.1-0.2-0.3-0.2-0.3 0.1 0 0.5-0.1 0.8-0.5 1.3-0.3 0.5-0.5 0.1-0.7 0.3-0.7 0.5-0.4 1.7-0.4 2.3s-0.2 1.2-0.4 1.1c-0.4-0.2-0.7-1-0.7-1.2-0.1-0.5-0.5-0.5-0.5-0.3-0.2 0.7-0.8 2.2-1.1 2.9-0.2 0.4-0.5 0-0.6-0.4 0.3-0.9 0.7-1.7 1.1-2.6 0.1-0.2 0.1-0.3 0.2-0.5s0-0.4-0.2-0.5-0.4 0-0.5 0.2c-0.7 1.4-1.2 2.8-1.6 4.1-0.3 0.6-0.7 1.1-1.1 1.6-0.3 0.3-0.7-1.4-1.4-0.5-0.2 0.3-0.9 1.2-1.2 1.6 0 0.1-0.1 0.1-0.1 0.1 0.6-1.6 1.4-3.2 2.4-4.8 0.1-0.1 0.2-0.3 0.3-0.4 0.1-0.2 0.1-0.4-0.1-0.5s-0.4-0.1-0.5 0.1c-0.9 1.4-1.7 2.9-2.3 4.3-0.2-0.7-0.9 0-1.2 0.4s-0.7 1-0.8 0.7c0 0-0.1-0.2-0.1-0.4 0-0.3-0.3-0.4-0.6-0.4 0.5-0.9 1.2-1.9 1.9-2.8l0.3-0.3c0.1-0.1 0.1-0.4-0.1-0.5-0.1-0.1-0.4-0.1-0.5 0.1-0.9 1.2-1.7 2.4-2.3 3.6-0.3 0.1-0.5 0.1-0.7 0.2-0.6 0.2-1.3 0.4-1.3 0.4 0-0.3 0-0.6-0.3-0.8-0.3-0.3-1.5 0-2-0.1s-0.5-0.2-0.5-0.4c0.2-0.7-0.4-1-1.1-1.1-0.7-0.2-1-0.3-1-0.3 0.2-0.7-0.8-1.1-1.4-1.4s-1.3-0.7-1.3-0.7l-0.1-0.5c-0.1-0.7-0.9-0.9-1.4-1.4-0.5-0.4-0.7-1.2-0.7-1.2s0 0.1 0.2 0.8c0.2 0.7 0.8 1.1 1 1.6s-0.1 0.9-0.1 0.9c0.5 0.4 1 0.7 1.8 1.1 0.8 0.5 0.2 0.9 0.2 0.9 0.5 0.4 1.3 0.8 2.1 1 0.8 0.3 0.1 0.9 0.1 0.9 0.9 0.4 2 0.8 2.6 0.8s0.2 0.9 0.2 0.9c0.6 0.2 1.1 0.1 2.5-0.3 0.2 0 0.3-0.1 0.4-0.1-1.6 3.8-1.9 7.5-0.8 10.3-0.9-2.8-0.3-6.6 1.4-10.2 0.4 0.1 0.3 0.5 0.3 0.7-0.1 0.3 0 0.7 0.2 0.6 1.2-0.5 2-1.6 2.3-1.6 0.1 0 0.1 0.1 0.2 0.2-1.3 4.2-1.3 8.2 0.2 11-1-2.6-1-6.1 0-9.7 0.8-0.4 1-1 1.5-1.4s0.7-0.2 0.7 0.1c0.1 0.4-0.2 1.1 0.2 0.9 0.5-0.2 0.9-0.5 1.2-0.8-0.7 4.5-0.1 8.6 1.8 11.4-1.8-3.2-2.1-7.9-0.8-12.9 0.1-0.2 0.1-0.3 0.2-0.4 0.1-0.3 0.3 0.1 0.3 0.5s0.1 0.7 0.3 0.5c1.3-0.6 2.1-2.7 2.2-3.1 0-0.2 0.1-0.1 0.3 0.1 0.6 0.5 0.4 1 0.6 1 0.4 0 0.7-0.3 1.1-0.8 0.3-0.6 0.3-1.9 0.3-2.3s0.7 0.3 0.7 0.3 0.5-0.9 0.5-2.5c-0.1-1.1-0.3-1.6-0.5-1.8"/>
		<path d="m58.9 29.7c0-0.1-0.1-0.2-0.2-0.2 0 0-0.1 0-0.1 0.1 0.1 0.1 0.2 0.2 0.2 0.3 0.1-0.1 0.1-0.1 0.1-0.2"/>
		<path d="m51.3 27.7c-0.1 0.3 0 0.4 0.5 0.4h1.3l-1.8-0.9c0 0.2 0.1 0.4 0 0.5"/>
		<path d="m54.4 29c-0.1-0.1-0.3-0.2-0.4-0.3 0 0.1 0.1 0.3 0 0.4 0.1 0 0.2-0.1 0.4-0.1"/>
		<path d="m58.2 32.5c0.2-0.9 0.4-1.7 0.6-2.6-0.1-0.1-0.2-0.2-0.2-0.3-0.3 0.2-0.9 0.8-1.8 1.3 0.5 0.5 1 1.1 1.4 1.6"/>
		<path d="m59.6 30.7c-0.2 0.1-0.3 0.3-0.5 0.4-0.2 0.7-0.3 1.3-0.4 2 2.1 2.8 3.4 6.3 3.4 10.1 0.1-0.1 0.2-0.1 0.3-0.2 0.6-0.3 1.3-0.4 1.9-0.2 0-0.8-0.1-1.5-0.2-2.3-0.8-1.5-1.4-3.3-1.5-5.3-0.9-1.6-1.8-3.1-3-4.5"/>
		<path d="m47.6 26.2c0-0.2 0-0.4-0.4-0.6-0.8-0.5-1.4-0.8-1.8-1.1 0 0 0.2-0.3 0.2-0.7-0.4 0-0.7-0.1-1.1-0.1-4.3 0-8.2 1.4-11.4 3.6 1.1 0.4 1 1.4 0.8 2.2 3-2.2 6.6-3.6 10.6-3.6 1 0 2.1 0.1 3.1 0.3"/>
		<path d="m27 46.3c-0.7 0.6-1.5 0.7-2.2 0.4 1.6 9.4 9.7 16.6 19.6 16.6 3.6 0 6.9-1 9.9-2.6-0.3-0.5-0.4-1.4-0.1-2.5-2.8 1.8-6.1 2.9-9.7 2.9-8.8 0.1-16.1-6.4-17.5-14.8"/>
		<path d="m23.2 43.6c-0.9-0.2-1.8-0.1-2.4 0-1.4 0.2-2.2 0.4-2.2 0.4s0.2-0.4 0.4-0.6c0.1-0.3-0.2-0.3-0.3-0.3s-1.2 0-2.1 0.2c-0.9 0.1-1.9-0.1-1.9-0.1 0.2-0.2 0.3-0.5 0.4-0.6 0-0.1 0-0.2-0.2-0.3s-0.7-0.3-1.7-0.1c-2.1 0.4-2.7-0.4-2.7-0.4s0.1-1.1 0.6-2.7c0.7-2.5 1.6-3.7 1.7-3.9 0.1-0.1-0.1-0.3-0.2-0.3s-1.1 0.1-1.1 0.1 0.5-1.4 1.7-3.6c1.1-2.2 1.5-3.1 1.6-3.5 0.2-0.7-0.9-0.4-0.9-0.4s0.4-0.8 1.1-1.6c0.6-0.9 1.5-1.8 1.7-1.9 0.1-0.2 0-0.2-0.1-0.2h-0.7s0.4-0.6 1.5-1.5c1.1-0.9 1.6-1.3 1.7-1.3 0.2-0.2 0.2-0.3 0-0.4-0.1 0-0.4-0.2-0.4-0.2s0.3-0.3 1.4-0.8c1-0.4 1.8-0.6 2-0.6 0.2-0.1 0.1-0.2 0.1-0.2 0-0.1-0.5-0.4-0.5-0.4s0.3-0.2 1.3-0.7c1-0.5 2-0.6 2-0.6s-1.2-0.3-4.2 0.7c-2.4 0.8-3.4 1.6-3.4 1.6s0.4-0.1 0.8-0.1h0.7s-1.4 0.7-2.7 1.5c-1.3 0.9-1.6 1.2-1.6 1.2s0.4-0.1 0.7-0.1c0.4 0 0.7-0.1 0.7-0.1s-1.4 1.1-2.5 2.3c-1 1.2-1.3 1.8-1.3 1.8s0.4-0.2 0.9-0.3c0.5-0.1 0.7 0 0.7 0s-0.4 0.7-1.1 1.5c-0.7 0.8-1.2 1.6-1.5 2.3s-0.4 1-0.4 1 0.4 0 0.8-0.3c0.4-0.3 0.7-0.3 0.7-0.3s-1.7 3.7-2.1 5.8c-0.2 0.8-0.3 1.5-0.6 2 0 0 0.5-0.1 0.8-0.4l0.4-0.3s-1.2 3.2-1 5.1c0 0.1 1.5 1.1 2.8 0.8 0 0-0.1 0.2-0.8 0.4-0.7 0.1-1 0.5-1 0.5 0.8 0 2.1 0.5 3.5 0.6s2.5-0.1 2.5-0.1-0.1 0.2-0.6 0.4c-0.6 0.3-1.2 0.3-1.2 0.3s0.2 0.2 0.6 0.3c0.5 0.1 1.6 0.1 2.9-0.2 1.2-0.3 2-0.2 3.3-0.3 1.2 0 1.5 0.9 2.1 1.6 0.2 0.2 0.5 0.4 0.8 0.5-0.1-0.6-0.2-1.2-0.2-1.8-0.5-0.5-0.6-1.3-1.3-1.4"/>
		<path d="m64.5 41.3c-0.2-0.3-0.3-0.7-0.5-1 0 0.1 0 0.2 0.1 0.3 0.1 0.2 0.2 0.5 0.4 0.7"/>
		<path d="m56.3 30.5v0.1c-0.1 0.3 0 0.7 0.2 0.6 0.1-0.1 0.2-0.1 0.4-0.2-0.3-0.2-0.5-0.4-0.6-0.5"/>
		<path d="m59.1 40.8c-0.9-2.1-1-4.8-0.4-7.7-0.1-0.2-0.3-0.4-0.4-0.6-0.7 3.2-0.4 6.1 0.8 8.3"/>
		<path d="m53.7 28.3c-0.1-0.1-0.4-0.1-0.7-0.1 0.3 0.2 0.6 0.4 1 0.6 0-0.2-0.1-0.4-0.3-0.5"/>
		<path d="m41.3 42.9c-0.2 0-0.4 0-0.6 0.1-0.7 0.2-1.2 0.9-1.2 1.7 0 1 0.8 1.8 1.8 1.8 0.4 0 0.8-0.1 1.1-0.4 0.4-0.3 0.7-0.8 0.7-1.4 0-1-0.8-1.8-1.8-1.8"/>
		<path d="m51.8 48.5l-0.3-0.3-0.1-0.4-0.2-0.2v-0.1h-0.1v-0.1-0.1l-1.4-1.4-0.3-0.3-1.6-1.6-0.9-0.8-0.8-0.7-1-0.8-0.2-0.2-0.3-0.3-0.4-0.3-0.2-0.3v-5h-5.6v0.2 0.1 0.1l0.1 0.1v0.1 0.2l0.1 0.1 0.1 0.1v0.1l-0.1 0.2v0.1 0.1l0.1 0.2-0.3 0.7-0.1 0.2v0.1 0.1 0.1 0.1l0.2 0.2 0.1 0.1v0.1l0.1 0.1 0.1 0.2v0.1l0.1 0.1v0.1 0.1 0.2 0.1 0.1 0.2 0.1l0.1 0.2 0.1 0.2-0.1 0.2v0.1l0.1 0.1 0.1 0.1 0.1 0.1h0.1l0.1 0.1 0.1 0.2 0.1 0.1 0.2 0.1 0.1 0.2 0.1 0.1c0.1 0 0.1-0.1 0.2-0.1 0.3-0.1 0.7-0.2 1.1-0.2 1.7 0 3.1 1.4 3.1 3.1 0 1-0.5 1.9-1.2 2.5v0.1 0.1l0.1 0.1v0.1 0.1l-0.1 0.2v0.1h0.2l0.1 0.1h0.6 0.1 0.3 0.1l0.2 0.1 0.1 0.2h0.1l0.1 0.2 0.1 0.1 0.2 0.1h0.2 0.3l0.1 0.1 0.1 0.3v0.1l0.2 0.1v-0.1h0.1 0.1l0.2 0.2 0.1 0.1h0.1l0.2 0.2 0.1 0.1 0.2 0.2 0.3 0.5v0.2 0.1l0.1 0.1v0.1l0.1-0.1 0.1 0.1v0.1l-0.1-0.1 0.1 0.1v0.1l1.3-0.1 1.8-0.2h0.2 0.1v-0.1l0.1-0.1v-0.2l-0.1-0.1h-0.2-0.1v-0.1-0.2l-0.2-0.4v-0.1-0.1l0.1-0.1h0.1l0.1-0.1v-0.1-0.1-0.3l0.1-0.1v-0.1l0.4-0.5z"/>
	</g>
</g>
</svg>
